<svg width="956" height="905" viewBox="0 0 956 905" fill="none" xmlns="http://www.w3.org/2000/svg">
<path fill-rule="evenodd" clip-rule="evenodd" d="M498.225 887.769C410.029 888.017 314.041 883.189 247.9 824.821C182.966 767.519 192.5 667.257 158.207 587.716C116.265 490.432 -7.01408 408.763 24.9781 307.764C56.6462 207.787 202.719 211.783 293.756 159.787C375.479 113.11 436.452 21.9943 530.506 19.0265C626.383 16.0012 713.622 76.7987 781.717 144.389C844.605 206.811 868.149 293.611 892.881 378.717C917.777 464.382 954.278 553.501 925.111 637.808C895.742 722.7 816.519 778.063 739.024 823.439C665.524 866.477 583.387 887.529 498.225 887.769Z" fill="#3479A3"/>
</svg>
