<svg width="750" height="716" viewBox="0 0 750 716" fill="none" xmlns="http://www.w3.org/2000/svg">
<path fill-rule="evenodd" clip-rule="evenodd" d="M680.848 314.237C691.44 371.56 635.279 417.902 606.593 468.649C584.92 506.99 566.073 545.948 533.26 575.326C500.374 604.77 462.267 628.25 418.935 636.662C374.643 645.261 327.897 642.21 287.01 623.131C246.58 604.264 225.1 562.691 193.317 531.38C151.583 490.265 87.2186 466.529 70.9286 410.256C53.9292 351.532 69.1026 282.01 107.315 234.289C144.645 187.669 216.041 193.133 268.152 163.955C325.777 131.69 362.907 46.3942 428.453 54.481C493.879 62.5531 510.932 152.297 556.871 199.576C596.909 240.782 670.408 257.739 680.848 314.237Z" fill="#4A92AC" fill-opacity="0.72"/>
</svg>
