<svg xmlns="http://www.w3.org/2000/svg" xmlns:xlink="http://www.w3.org/1999/xlink" viewBox="0 0 1416.78 192"><defs><style>.cls-1{fill:url(#linear-gradient);}.cls-2{fill:#1a242d;opacity:0.4;}</style><linearGradient id="linear-gradient" x1="111.48" y1="95.55" x2="214.33" y2="94.65" gradientUnits="userSpaceOnUse"><stop offset="0" stop-color="#ff6850"/><stop offset="1" stop-color="#686fff"/></linearGradient></defs><g id="Muuvment_Logo" data-name="Muuvment Logo"><path d="M433.22,101.49q.93,2.06,1.79,4.22.86-2.2,1.8-4.3t2-4l18.79-37a5.93,5.93,0,0,1,1-1.48,3.38,3.38,0,0,1,1.18-.78,4,4,0,0,1,1.48-.25h14.89V131h-15V88.89q0-3.06.31-6.63l-19.39,37.62a6.38,6.38,0,0,1-2.44,2.66,6.74,6.74,0,0,1-3.49.9h-2.31a6.77,6.77,0,0,1-3.49-.9,6.44,6.44,0,0,1-2.44-2.66L408.44,82.21c.13,1.17.23,2.33.3,3.49s.1,2.22.1,3.19V131h-15V57.85h14.89a4,4,0,0,1,1.48.25,3.51,3.51,0,0,1,1.19.78,5.93,5.93,0,0,1,1,1.48l18.84,37.16C432,98.79,432.6,100.12,433.22,101.49Z"/><path d="M578.9,117.57a15.73,15.73,0,0,0,6.11-1.13,12.49,12.49,0,0,0,4.54-3.24,14.35,14.35,0,0,0,2.84-5.15,22.61,22.61,0,0,0,1-6.91V57.8h17v43.34a33.79,33.79,0,0,1-2.19,12.36,27.75,27.75,0,0,1-6.25,9.69,28.25,28.25,0,0,1-9.9,6.33,39.3,39.3,0,0,1-26.27,0,28.3,28.3,0,0,1-9.89-6.33,27.43,27.43,0,0,1-6.23-9.69,34.21,34.21,0,0,1-2.16-12.36V57.8h17v43.29a22.61,22.61,0,0,0,1,6.91,14.53,14.53,0,0,0,2.84,5.17,12.25,12.25,0,0,0,4.54,3.27A15.68,15.68,0,0,0,578.9,117.57Z"/><path d="M712.1,117.57a15.73,15.73,0,0,0,6.11-1.13,12.49,12.49,0,0,0,4.54-3.24,14.35,14.35,0,0,0,2.84-5.15,22.61,22.61,0,0,0,1-6.91V57.8h17v43.34a33.79,33.79,0,0,1-2.19,12.36,27.75,27.75,0,0,1-6.25,9.69,28.25,28.25,0,0,1-9.9,6.33,39.3,39.3,0,0,1-26.27,0,28.3,28.3,0,0,1-9.89-6.33,27.43,27.43,0,0,1-6.23-9.69,34.21,34.21,0,0,1-2.16-12.36V57.8h17v43.29a22.31,22.31,0,0,0,1,6.91,14.53,14.53,0,0,0,2.84,5.17,12.25,12.25,0,0,0,4.54,3.27A15.68,15.68,0,0,0,712.1,117.57Z"/><path d="M808.84,57.8H822.5a6.1,6.1,0,0,1,3.62,1,5.62,5.62,0,0,1,2,2.66l14.16,39.18q1,2.56,1.93,5.58t1.84,6.32q.71-3.32,1.63-6.32t1.83-5.58l14.07-39.18a5.8,5.8,0,0,1,5.52-3.66h13.76L853.54,131H838.17Z"/><path d="M988.52,101.49q.93,2.06,1.79,4.22.86-2.2,1.8-4.3t2-4l18.79-37a5.93,5.93,0,0,1,1-1.48,3.38,3.38,0,0,1,1.18-.78,4,4,0,0,1,1.48-.25h14.89V131h-15V88.89q0-3.06.31-6.63l-19.39,37.62a6.38,6.38,0,0,1-2.44,2.66,6.74,6.74,0,0,1-3.49.9h-2.31a6.77,6.77,0,0,1-3.49-.9,6.44,6.44,0,0,1-2.44-2.66L963.74,82.21c.13,1.17.23,2.33.3,3.49s.1,2.22.1,3.19V131h-15V57.85h14.89a4,4,0,0,1,1.48.25,3.51,3.51,0,0,1,1.19.78,5.93,5.93,0,0,1,1,1.48l18.84,37.16C987.26,98.79,987.9,100.12,988.52,101.49Z"/><path d="M1150.88,57.8V70.86h-30V87.93h23v12.56h-23v17.43h30V131h-47.11V57.8Z"/><path d="M1231.59,57.9a5,5,0,0,1,1.36.37,4.87,4.87,0,0,1,1.15.78,13.7,13.7,0,0,1,1.26,1.36l34.75,44c-.13-1.41-.23-2.77-.3-4.1s-.1-2.57-.1-3.74V57.8h15V131h-8.84a8,8,0,0,1-3.31-.61,7,7,0,0,1-2.62-2.21l-34.5-43.59c.1,1.27.18,2.52.25,3.74s.1,2.37.1,3.44V131h-15V57.8h8.94A13.86,13.86,0,0,1,1231.59,57.9Z"/><path d="M1410.15,57.8V71.26h-20.6V131h-17V71.26H1352V57.8Z"/><path class="cls-1" d="M319.87,152.91a33.73,33.73,0,0,1-33.7,33.7H228.76a42.82,42.82,0,0,1-36.82-21.16l-30.23-52.28-30.2,52.21a42.85,42.85,0,0,1-36.86,21.23H37.24a33.69,33.69,0,0,1-29.09-50.7L73,24.17a42.61,42.61,0,0,1,73.67,0l15.05,26,15-25.92a42.61,42.61,0,0,1,73.67-.05L315.29,136a33.58,33.58,0,0,1,4.58,16.94ZM179.94,81.63l39.29,68a11,11,0,0,0,9.53,5.46h57.41a2.15,2.15,0,0,0,1.84-3.18L223.11,40a11,11,0,0,0-19.1,0L179.94,81.63ZM35.11,152.91A2.14,2.14,0,0,0,37.24,155H94.65a11,11,0,0,0,9.56-5.53l39.26-67.88L119.37,40a11,11,0,0,0-19.09.05L35.43,151.81a2.16,2.16,0,0,0-.32,1.1Z"/><polygon class="cls-2" points="143.47 81.63 161.71 50.1 146.66 24.13 128.43 55.66 143.47 81.63"/><polygon class="cls-2" points="176.74 139.13 194.98 107.6 179.94 81.63 161.71 113.16 176.74 139.13"/></g></svg>